<mxfile host="app.diagrams.net" modified="2024-02-21T14:25:18.765Z" agent="Mozilla/5.0 (X11; Linux x86_64; rv:122.0) Gecko/20100101 Firefox/122.0" version="23.1.4" etag="76aQj9fmebPYOPm-al_y" type="github">
  <diagram name="Page-1" id="1E23wLaBQu4PbfMmt5Kb">
    <mxGraphModel>
      <root>
        <mxCell id="0" />
        <mxCell id="1" parent="0" />
      </root>
    </mxGraphModel>
  </diagram>
</mxfile>
